<svg width="17" height="17" viewBox="0 0 17 17" fill="none" xmlns="http://www.w3.org/2000/svg">
<path d="M4.93934 9.93934C4.35355 10.5251 4.35355 11.4749 4.93934 12.0607C5.52513 12.6464 6.47487 12.6464 7.06066 12.0607L4.93934 9.93934ZM16.5 2C16.5 1.17157 15.8284 0.500001 15 0.500001L1.5 0.500001C0.671573 0.500001 -3.04224e-07 1.17157 -3.04224e-07 2C-3.04224e-07 2.82843 0.671573 3.5 1.5 3.5L13.5 3.5L13.5 15.5C13.5 16.3284 14.1716 17 15 17C15.8284 17 16.5 16.3284 16.5 15.5L16.5 2ZM7.06066 12.0607L16.0607 3.06066L13.9393 0.93934L4.93934 9.93934L7.06066 12.0607Z" fill="#2D3D36"/>
</svg>
