<svg width="21" height="17" viewBox="0 0 21 17" fill="none" xmlns="http://www.w3.org/2000/svg">
<path d="M0.4375 3.82812C0.4375 2.97032 0.778263 2.14764 1.38483 1.54108C1.99139 0.934513 2.81407 0.59375 3.67188 0.59375H17.3281C18.1859 0.59375 19.0086 0.934513 19.6152 1.54108C20.2217 2.14764 20.5625 2.97032 20.5625 3.82812V13.1719C20.5625 14.0297 20.2217 14.8524 19.6152 15.4589C19.0086 16.0655 18.1859 16.4062 17.3281 16.4062H3.67188C2.81407 16.4062 1.99139 16.0655 1.38483 15.4589C0.778263 14.8524 0.4375 14.0297 0.4375 13.1719V3.82812ZM3.67188 2.03125C3.19531 2.03125 2.73827 2.22056 2.40129 2.55754C2.06431 2.89452 1.875 3.35156 1.875 3.82812V4.90625H19.125V3.82812C19.125 3.35156 18.9357 2.89452 18.5987 2.55754C18.2617 2.22056 17.8047 2.03125 17.3281 2.03125H3.67188ZM1.875 13.1719C1.875 13.6484 2.06431 14.1055 2.40129 14.4425C2.73827 14.7794 3.19531 14.9688 3.67188 14.9688H17.3281C17.8047 14.9688 18.2617 14.7794 18.5987 14.4425C18.9357 14.1055 19.125 13.6484 19.125 13.1719V6.34375H1.875V13.1719ZM14.0938 10.6562H16.25C16.4406 10.6562 16.6234 10.732 16.7582 10.8668C16.893 11.0016 16.9688 11.1844 16.9688 11.375C16.9688 11.5656 16.893 11.7484 16.7582 11.8832C16.6234 12.018 16.4406 12.0938 16.25 12.0938H14.0938C13.9031 12.0938 13.7203 12.018 13.5855 11.8832C13.4507 11.7484 13.375 11.5656 13.375 11.375C13.375 11.1844 13.4507 11.0016 13.5855 10.8668C13.7203 10.732 13.9031 10.6562 14.0938 10.6562Z" fill="#2D3D36"/>
</svg>
