<svg width="23" height="23" viewBox="0 0 23 23" fill="none" xmlns="http://www.w3.org/2000/svg">
<path d="M18.5123 15.7204C17.9501 15.1578 17.2932 14.6986 16.5717 14.3638C17.5892 13.5395 18.2383 12.2817 18.2383 10.8711C18.2383 8.38246 16.1629 6.34076 13.6742 6.37895C11.2237 6.41713 9.24941 8.41391 9.24941 10.8711C9.24941 12.2817 9.90078 13.5395 10.916 14.3638C10.1944 14.6983 9.53741 15.1576 8.97539 15.7204C7.74902 16.9491 7.05273 18.5707 7.00781 20.3002C7.00721 20.3242 7.01142 20.3481 7.02018 20.3704C7.02894 20.3927 7.04208 20.413 7.05883 20.4302C7.07557 20.4474 7.09558 20.461 7.11768 20.4703C7.13978 20.4796 7.16352 20.4844 7.1875 20.4844H8.44531C8.54189 20.4844 8.62275 20.408 8.625 20.3115C8.66768 19.0087 9.19551 17.7891 10.1231 16.8637C10.5978 16.3865 11.1625 16.0082 11.7843 15.7506C12.4062 15.4931 13.073 15.3614 13.7461 15.3633C15.114 15.3633 16.401 15.8956 17.369 16.8637C18.2944 17.7891 18.8223 19.0087 18.8672 20.3115C18.8694 20.408 18.9503 20.4844 19.0469 20.4844H20.3047C20.3287 20.4844 20.3524 20.4796 20.3745 20.4703C20.3966 20.461 20.4166 20.4474 20.4334 20.4302C20.4501 20.413 20.4632 20.3927 20.472 20.3704C20.4808 20.3481 20.485 20.3242 20.4844 20.3002C20.4395 18.5707 19.7432 16.9491 18.5123 15.7204ZM13.7461 13.7461C12.9779 13.7461 12.2547 13.4474 11.7134 12.9038C11.4417 12.6343 11.2271 12.3129 11.0824 11.9586C10.9377 11.6043 10.8658 11.2246 10.8711 10.8419C10.8778 10.1052 11.1721 9.3932 11.6864 8.86537C12.2255 8.31283 12.9465 8.00512 13.7169 7.99613C14.4783 7.98939 15.2173 8.28588 15.7608 8.8182C16.3179 9.364 16.6233 10.094 16.6233 10.8711C16.6233 11.6393 16.3246 12.3603 15.7811 12.9038C15.5144 13.1718 15.1972 13.3842 14.8479 13.5288C14.4986 13.6734 14.1241 13.7472 13.7461 13.7461ZM8.11963 11.4641C8.09941 11.2687 8.08818 11.071 8.08818 10.8711C8.08818 10.514 8.12187 10.1659 8.18477 9.8267C8.20049 9.74584 8.15781 9.66273 8.08369 9.62904C7.77822 9.49203 7.49746 9.30336 7.25488 9.06527C6.96904 8.78812 6.74412 8.45443 6.59445 8.08549C6.44479 7.71655 6.37367 7.32046 6.38564 6.9225C6.40586 6.2015 6.69561 5.51645 7.20098 4.99984C7.75576 4.43158 8.50146 4.12162 9.29434 4.1306C10.0108 4.13734 10.7026 4.41361 11.226 4.90326C11.4034 5.06947 11.5562 5.25365 11.6842 5.45131C11.7291 5.52094 11.8167 5.55014 11.8931 5.52318C12.2884 5.38617 12.7062 5.28959 13.1352 5.24467C13.2609 5.23119 13.3328 5.09643 13.2767 4.98412C12.5467 3.53988 11.0553 2.54262 9.33027 2.51566C6.83936 2.47748 4.76396 4.51918 4.76396 7.00561C4.76396 8.41615 5.41309 9.67396 6.43057 10.4983C5.71631 10.8285 5.0582 11.2844 4.4877 11.8549C3.25684 13.0835 2.56055 14.7052 2.51562 16.437C2.51503 16.4609 2.51923 16.4848 2.52799 16.5071C2.53675 16.5294 2.54989 16.5498 2.56664 16.5669C2.58338 16.5841 2.6034 16.5977 2.6255 16.607C2.64759 16.6163 2.67133 16.6211 2.69531 16.6211H3.95537C4.05195 16.6211 4.13281 16.5448 4.13506 16.4482C4.17773 15.1454 4.70557 13.9258 5.6332 13.0004C6.29355 12.3401 7.10215 11.8819 7.98486 11.6595C8.07246 11.6371 8.13086 11.5539 8.11963 11.4641Z" fill="#2D3D36"/>
</svg>
