<svg width="23" height="23" viewBox="0 0 23 23" fill="none" xmlns="http://www.w3.org/2000/svg">
<path d="M11.5 1.91663C6.20713 1.91663 1.91667 6.20708 1.91667 11.5C1.91667 16.7928 6.20713 21.0833 11.5 21.0833C16.7929 21.0833 21.0833 16.7928 21.0833 11.5C21.0833 6.20708 16.7929 1.91663 11.5 1.91663Z" stroke="#2D3D36" stroke-width="1.5625" stroke-linecap="round" stroke-linejoin="round"/>
<path d="M7.66667 20.2859V13.4166L11.5 6.70825L15.3333 13.4166V20.2859" stroke="#2D3D36" stroke-width="1.5625" stroke-linecap="round" stroke-linejoin="round"/>
<path d="M7.66667 13.4166C7.66667 13.4166 8.74671 14.375 9.58334 14.375C10.42 14.375 11.5 13.4166 11.5 13.4166C11.5 13.4166 12.58 14.375 13.4167 14.375C14.2533 14.375 15.3333 13.4166 15.3333 13.4166" stroke="#2D3D36" stroke-width="1.5625" stroke-linecap="round" stroke-linejoin="round"/>
</svg>
