<svg width="14" height="20" viewBox="0 0 14 20" fill="none" xmlns="http://www.w3.org/2000/svg">
<path d="M12.5312 6.625C13.1347 6.17244 13.5804 5.5415 13.8053 4.82154C14.0302 4.10158 14.0228 3.32912 13.7843 2.61356C13.5458 1.898 13.0882 1.27562 12.4763 0.834598C11.8644 0.393572 11.1293 0.15625 10.375 0.15625H3.90625C3.15198 0.15625 2.41684 0.393572 1.80495 0.834598C1.19305 1.27562 0.735438 1.898 0.496919 2.61356C0.258399 3.32912 0.251069 4.10158 0.475966 4.82154C0.700863 5.5415 1.14659 6.17244 1.75 6.625C1.29313 6.96739 0.924405 7.41371 0.674376 7.92698C0.424347 8.44026 0.300207 9.00572 0.312238 9.57652C0.324268 10.1473 0.472124 10.7071 0.743558 11.2093C1.01499 11.7116 1.40219 12.142 1.87309 12.4648C1.33747 12.8721 0.914656 13.4093 0.644681 14.0256C0.374706 14.6419 0.266505 15.3169 0.330321 15.9867C0.394137 16.6565 0.62786 17.2989 1.00936 17.8532C1.39086 18.4074 1.9075 18.8551 2.51038 19.1538C3.11326 19.4526 3.78242 19.5925 4.45449 19.5604C5.12656 19.5282 5.7793 19.3251 6.35092 18.9701C6.92253 18.6152 7.39409 18.1202 7.72095 17.5321C8.04781 16.944 8.21915 16.2822 8.21875 15.6094V12.375C8.5963 12.6582 9.02593 12.8642 9.4831 12.9813C9.94027 13.0984 10.416 13.1244 10.8832 13.0576C11.3504 12.9909 11.7999 12.8328 12.206 12.5923C12.6121 12.3519 12.9668 12.0338 13.25 11.6562C13.5332 11.2787 13.7392 10.8491 13.8563 10.3919C13.9734 9.93473 13.9994 9.45896 13.9326 8.99177C13.8659 8.52457 13.7078 8.0751 13.4673 7.66901C13.2269 7.26292 12.9088 6.90816 12.5312 6.625ZM12.5312 3.75C12.5312 4.32187 12.3041 4.87032 11.8997 5.2747C11.4953 5.67907 10.9469 5.90625 10.375 5.90625H8.21875V1.59375H10.375C10.9469 1.59375 11.4953 1.82093 11.8997 2.2253C12.3041 2.62968 12.5312 3.17813 12.5312 3.75ZM1.75 3.75C1.75 3.17813 1.97717 2.62968 2.38155 2.2253C2.78593 1.82093 3.33438 1.59375 3.90625 1.59375H6.78125V5.90625H3.90625C3.33438 5.90625 2.78593 5.67907 2.38155 5.2747C1.97717 4.87032 1.75 4.32187 1.75 3.75ZM3.90625 11.6562C3.33438 11.6562 2.78593 11.4291 2.38155 11.0247C1.97717 10.6203 1.75 10.0719 1.75 9.5C1.75 8.92813 1.97717 8.37968 2.38155 7.9753C2.78593 7.57093 3.33438 7.34375 3.90625 7.34375H6.78125V11.6562H3.90625ZM6.78125 15.6094C6.78125 16.1069 6.63371 16.5933 6.35729 17.007C6.08087 17.4207 5.68798 17.7431 5.22831 17.9335C4.76864 18.1239 4.26283 18.1737 3.77485 18.0767C3.28687 17.9796 2.83863 17.74 2.48681 17.3882C2.13499 17.0364 1.8954 16.5881 1.79834 16.1001C1.70127 15.6122 1.75109 15.1064 1.94149 14.6467C2.13189 14.187 2.45433 13.7941 2.86802 13.5177C3.28171 13.2413 3.76808 13.0938 4.26562 13.0938H6.78125V15.6094ZM10.375 11.6562C9.94853 11.6562 9.53164 11.5298 9.17705 11.2929C8.82246 11.0559 8.54609 10.7192 8.38288 10.3252C8.21968 9.93116 8.17698 9.49761 8.26018 9.07934C8.34338 8.66106 8.54874 8.27686 8.8503 7.9753C9.15186 7.67374 9.53606 7.46838 9.95434 7.38518C10.3726 7.30198 10.8062 7.34468 11.2002 7.50788C11.5942 7.67109 11.9309 7.94746 12.1679 8.30205C12.4048 8.65665 12.5312 9.07353 12.5312 9.5C12.5312 10.0719 12.3041 10.6203 11.8997 11.0247C11.4953 11.4291 10.9469 11.6562 10.375 11.6562Z" fill="#2D3D36"/>
</svg>
